<svg width="100" height="100" viewBox="0 0 100 100" fill="none" xmlns="http://www.w3.org/2000/svg">
<g clip-path="url(#clip0)">
<path d="M33.5863 41.1631C37.0133 37.7362 37.0133 32.1604 33.5863 28.7335L21.5342 16.6813C19.6906 14.8376 17.135 13.9034 14.525 14.1182C11.9648 14.329 9.64922 15.634 8.17207 17.6985C7.86543 18.127 7.56934 18.5618 7.2793 19.0001L31.5143 43.235L33.5863 41.1631Z" fill="#2E2D2D"/>
<path d="M83.3196 78.465L71.2674 66.4128C67.8408 62.9863 62.2647 62.9859 58.8377 66.4128L56.7656 68.4849L81.0016 92.7209C81.4399 92.4308 81.8739 92.1335 82.3022 91.8271C84.3666 90.35 85.6717 88.0343 85.8827 85.4742C86.0977 82.8638 85.1633 80.3089 83.3196 78.465Z" fill="#2E2D2D"/>
<path d="M48.479 73.1303C46.1312 73.1303 43.9244 72.216 42.2642 70.5561L29.4439 57.7357C27.7839 56.0758 26.8695 53.8686 26.8695 51.5209C26.8695 50.1873 27.1654 48.8994 27.7244 47.7311L4.28647 24.293C0.989597 31.2154 -0.469387 38.9711 0.132566 46.7559C0.943698 57.2461 5.46753 67.1004 12.871 74.5037L25.4964 87.1289C32.8996 94.5322 42.754 99.0561 53.2443 99.8674C54.3906 99.956 55.5359 100 56.6785 100C63.2947 100 69.8038 98.525 75.707 95.7137L52.2687 72.2754C51.1005 72.8346 49.8126 73.1303 48.479 73.1303Z" fill="#2E2D2D"/>
<path d="M58.9844 0C57.3664 0 56.0547 1.31172 56.0547 2.92969C56.0547 4.54766 57.3664 5.85938 58.9844 5.85938C78.3695 5.85938 94.1406 21.6305 94.1406 41.0156C94.1406 42.6336 95.4523 43.9453 97.0703 43.9453C98.6883 43.9453 100 42.6336 100 41.0156C100 18.3996 81.6004 0 58.9844 0Z" fill="#FFC90A"/>
<path d="M58.9842 41.0129C58.9842 41.0129 58.9844 41.0139 58.9844 41.0156C58.9844 42.6336 60.2961 43.9453 61.9141 43.9453C63.532 43.9453 64.8438 42.6336 64.8438 41.0156C64.8438 37.7848 62.2152 35.1562 58.9844 35.1562C57.3664 35.1562 56.0547 36.4666 56.0547 38.0846C56.0547 39.7025 57.3662 41.0129 58.9842 41.0129Z" fill="#FFC90A"/>
<path d="M58.9844 29.2969C65.4461 29.2969 70.7031 34.5539 70.7031 41.0156C70.7031 42.6336 72.0148 43.9453 73.6328 43.9453C75.2508 43.9453 76.5625 42.6336 76.5625 41.0156C76.5625 31.323 68.677 23.4375 58.9844 23.4375C57.3664 23.4375 56.0547 24.7492 56.0547 26.3672C56.0547 27.9852 57.3664 29.2969 58.9844 29.2969Z" fill="#FFC90A"/>
<path d="M58.9844 11.7188C57.3664 11.7188 56.0547 13.0305 56.0547 14.6484C56.0547 16.2664 57.3664 17.5781 58.9844 17.5781C71.9078 17.5781 82.4219 28.0922 82.4219 41.0156C82.4219 42.6336 83.7336 43.9453 85.3516 43.9453C86.9695 43.9453 88.2812 42.6336 88.2812 41.0156C88.2812 24.8613 75.1387 11.7188 58.9844 11.7188Z" fill="#FFC90A"/>
</g>
<defs>
<clipPath id="clip0">
<rect width="100" height="100" fill="white"/>
</clipPath>
</defs>
</svg>
