<svg width="100" height="100" viewBox="0 0 100 100" fill="none" xmlns="http://www.w3.org/2000/svg">
<g clip-path="url(#clip0)">
<path d="M89.9904 85.774C104.734 68.768 102.925 43.1225 86.2904 28.2383C94.8346 58.1785 72.2416 88.0859 41.1141 88.0859C40.5148 88.0859 44.1312 88.107 29.8867 88.0191C37.6775 95.7736 48.0541 100 58.8867 100C58.9148 100 97.0598 99.8049 97.0822 99.8047C99.6863 99.7922 100.984 96.623 99.126 94.7896L89.9904 85.774Z" fill="#FFC90A"/>
<path d="M41.1133 82.2266C63.7821 82.2266 82.2244 63.7832 82.2244 41.1133C82.2244 18.4434 63.7823 0 41.1133 0C18.4444 0 0.00238231 18.4434 0.00238231 41.1133C0.00238231 51.0936 3.5352 60.5326 10.0096 68.0006L0.874062 77.0162C-0.9775 78.8438 0.305117 82.0186 2.91801 82.0312C2.93812 82.0314 41.0934 82.2266 41.1133 82.2266ZM23.6338 26.5625H58.7881C60.4061 26.5625 61.7176 27.8742 61.7176 29.4922C61.7176 31.1102 60.4061 32.4219 58.7881 32.4219H23.6338C22.0159 32.4219 20.7043 31.1102 20.7043 29.4922C20.7043 27.8742 22.0161 26.5625 23.6338 26.5625ZM23.6338 38.2812H58.7881C60.4061 38.2812 61.7176 39.593 61.7176 41.2109C61.7176 42.8289 60.4061 44.1406 58.7881 44.1406H23.6338C22.0159 44.1406 20.7043 42.8289 20.7043 41.2109C20.7043 39.593 22.0161 38.2812 23.6338 38.2812ZM20.7043 52.9297C20.7043 51.3117 22.0159 50 23.6338 50H58.7881C60.4061 50 61.7176 51.3117 61.7176 52.9297C61.7176 54.5477 60.4061 55.8594 58.7881 55.8594H23.6338C22.0161 55.8594 20.7043 54.5477 20.7043 52.9297Z" fill="#2E2D2D"/>
</g>
<defs>
<clipPath id="clip0">
<rect width="100" height="100" fill="white"/>
</clipPath>
</defs>
</svg>
