<svg width="100" height="100" viewBox="0 0 100 100" fill="none" xmlns="http://www.w3.org/2000/svg">
<g clip-path="url(#clip0)">
<path d="M76.0764 17.0746C76.0764 14.7285 75.1607 12.5199 73.5014 10.8605L65.2158 2.575C63.5795 0.938477 61.2566 0 58.9449 0H58.4414V17.5781H76.0766L76.0764 17.0746Z" fill="#2E2D2D"/>
<path d="M53.5033 60.4564C54.0641 58.7541 55.0426 57.1691 56.3186 55.8846L76.1549 36.1281V23.4375H55.5689C53.9496 23.4375 52.7344 22.1271 52.7344 20.5078V0H8.78906C3.94258 0 0 3.94258 0 8.78906V91.2109C0 96.0574 3.94258 100 8.78906 100H67.2877C72.1342 100 76.1549 96.0574 76.1549 91.2109V69.3455L72.9353 72.4869C71.6309 73.7801 70.1031 74.7213 68.3807 75.2965L59.0652 78.4064L57.6461 78.4838C55.3 78.4838 53.0799 77.3422 51.701 75.4311C50.3334 73.5285 49.9615 71.0623 50.7053 68.8336L53.5033 60.4564ZM14.6484 52.7344H43.8502C45.4695 52.7344 46.7799 54.0447 46.7799 55.6641C46.7799 57.2834 45.4695 58.5938 43.8502 58.5938H14.6484C13.0291 58.5938 11.7188 57.2834 11.7188 55.6641C11.7188 54.0447 13.0291 52.7344 14.6484 52.7344ZM11.7188 43.9453C11.7188 42.326 13.0291 41.0156 14.6484 41.0156H43.8502C45.4695 41.0156 46.7799 42.326 46.7799 43.9453C46.7799 45.5646 45.4695 46.875 43.8502 46.875H14.6484C13.0291 46.875 11.7188 45.5646 11.7188 43.9453ZM11.7188 67.3828C11.7188 65.7635 13.0291 64.4531 14.6484 64.4531H43.8502C45.4695 64.4531 46.7799 65.7635 46.7799 67.3828C46.7799 69.0022 45.4695 70.3125 43.8502 70.3125H14.6484C13.0291 70.3125 11.7188 69.0022 11.7188 67.3828ZM55.5689 82.0312C57.1883 82.0312 58.4986 83.3416 58.4986 84.9609C58.4986 86.5803 57.1885 87.8906 55.5689 87.8906H37.9908C36.3715 87.8906 35.0611 86.5803 35.0611 84.9609C35.0611 83.3416 36.3715 82.0312 37.9908 82.0312H55.5689ZM14.6484 35.1562C13.0291 35.1562 11.7188 33.8459 11.7188 32.2266C11.7188 30.6072 13.0291 29.2969 14.6484 29.2969H55.5689C57.1883 29.2969 58.4986 30.6072 58.4986 32.2266C58.4986 33.8459 57.1883 35.1562 55.5689 35.1562H14.6484Z" fill="#2E2D2D"/>
<path d="M58.8102 63.0488L56.2614 70.6955C55.8793 71.841 56.9694 72.9307 58.1149 72.5481L65.7571 69.9957L58.8102 63.0488Z" fill="#FFC90A"/>
<path d="M81.5643 38.9268L62.2695 58.2215L70.5908 66.5428C74.9518 62.181 83.4371 53.6945 89.8846 47.2471L81.5643 38.9268Z" fill="#FFC90A"/>
<path d="M98.2785 30.5244C97.2486 29.4887 95.7322 28.8965 94.1242 28.8965C92.5162 28.8965 91 29.4887 89.9643 30.5273L85.707 34.7846L94.027 43.1045C96.3576 40.7736 97.9686 39.1627 98.2846 38.8469C100.573 36.5549 100.573 32.8217 98.2785 30.5244Z" fill="#FFC90A"/>
<path d="M98.2852 38.8463C98.2854 38.8463 98.2854 38.8461 98.2855 38.8459C98.293 38.8385 98.2963 38.8352 98.3024 38.8291C98.2963 38.8354 98.293 38.8387 98.2852 38.8463Z" fill="black"/>
<path d="M98.3027 38.8297C98.3121 38.8203 98.323 38.8094 98.3287 38.8037C98.3229 38.8096 98.3121 38.8203 98.3027 38.8297Z" fill="black"/>
<path d="M98.3281 38.8034C98.347 38.7845 98.3474 38.7841 98.3281 38.8034V38.8034Z" fill="black"/>
</g>
<defs>
<clipPath id="clip0">
<rect width="100" height="100" fill="white"/>
</clipPath>
</defs>
</svg>
