<svg width="100" height="100" viewBox="0 0 100 100" fill="none" xmlns="http://www.w3.org/2000/svg">
<g clip-path="url(#clip0)">
<path d="M22.1155 98.0538C24.8045 100.742 29.1654 100.742 31.8549 98.0538L83.8084 46.1003L53.9702 16.2627L2.01673 68.2156C-0.672243 70.9057 -0.672243 75.2655 2.01673 77.9556L22.1155 98.0538ZM50.8994 25.0392L53.4428 27.5832L49.8451 31.1809L47.3011 28.6375L50.8994 25.0392ZM43.7034 32.2352L46.2468 34.7792L35.4532 45.574L32.9092 43.0294L43.7034 32.2352Z" fill="#2E2D2D"/>
<path d="M94.602 24.5123L75.5575 5.46777L61.9102 19.1151L80.9546 38.1596L94.602 24.5123ZM73.2313 22.186L70.6878 19.6426L74.2855 16.0443L76.8295 18.5877L73.2313 22.186ZM77.8838 26.8385L81.4815 23.2403L84.0255 25.7843L80.4272 29.382L77.8838 26.8385Z" fill="#FFC90A"/>
<path d="M78.1035 2.92482L80.9561 0.0722656L100.001 19.1156L97.1474 21.9693L78.1035 2.92482Z" fill="#2E2D2D"/>
</g>
<defs>
<clipPath id="clip0">
<rect width="100" height="100" fill="white"/>
</clipPath>
</defs>
</svg>
