<svg width="100" height="100" viewBox="0 0 100 100" fill="none" xmlns="http://www.w3.org/2000/svg">
<path d="M46.2913 23.3258C47.3382 23.3259 48.3617 23.0582 49.2322 22.5567C50.1027 22.0552 50.7812 21.3423 51.1819 20.5083C51.5826 19.6743 51.6874 18.7566 51.4832 17.8712C51.2789 16.9857 50.7748 16.1725 50.0345 15.5341C49.2942 14.8958 48.351 14.4611 47.3241 14.285C46.2973 14.1089 45.2329 14.1993 44.2657 14.5447C43.2984 14.8902 42.4717 15.4753 41.8901 16.2259C41.3084 16.9765 40.998 17.859 40.998 18.7617C40.9997 19.9718 41.5578 21.1319 42.5502 21.9875C43.5425 22.8432 44.8879 23.3245 46.2913 23.3258Z" fill="#FFC90A"/>
<path d="M40.1828 39.8391H37.543V54.2557H40.1828C40.3615 54.2556 40.5384 54.2245 40.7029 54.1642C40.8675 54.104 41.0162 54.0158 41.1404 53.9049C41.2646 53.7941 41.3617 53.6628 41.4258 53.519C41.49 53.3751 41.5199 53.2216 41.5139 53.0676V40.9632C41.5185 40.8125 41.487 40.6626 41.4214 40.5228C41.3558 40.3831 41.2574 40.2565 41.1325 40.151C41.0076 40.0455 40.8588 39.9633 40.6954 39.9097C40.5319 39.856 40.3574 39.832 40.1828 39.8391Z" fill="#2E2D2D"/>
<path d="M22.4946 40.9633V53.0676C22.4898 53.2222 22.5209 53.376 22.5862 53.52C22.6515 53.664 22.7496 53.7952 22.8747 53.906C22.9998 54.0168 23.1493 54.1048 23.3146 54.1648C23.4798 54.2249 23.6573 54.2558 23.8366 54.2557H35.4523V39.8392H23.8366C23.6614 39.8319 23.4863 39.8557 23.3222 39.9092C23.1581 39.9627 23.0085 40.0447 22.8826 40.1501C22.7568 40.2555 22.6574 40.3821 22.5907 40.5219C22.5239 40.6618 22.4912 40.8121 22.4946 40.9633Z" fill="#FFC90A"/>
<path d="M26.263 29.6066C27.5172 29.6066 28.7432 29.286 29.7861 28.6852C30.829 28.0844 31.6418 27.2304 32.1218 26.2313C32.6018 25.2322 32.7274 24.1328 32.4827 23.0721C32.2381 22.0115 31.6341 21.0372 30.7473 20.2725C29.8604 19.5077 28.7305 18.987 27.5004 18.776C26.2703 18.565 24.9953 18.6733 23.8365 19.0871C22.6778 19.5009 21.6874 20.2018 20.9906 21.101C20.2938 22.0001 19.9219 23.0573 19.9219 24.1387C19.9238 25.5884 20.5925 26.9781 21.7813 28.0032C22.97 29.0282 24.5818 29.6049 26.263 29.6066Z" fill="#2E2D2D"/>
<path d="M46.2905 29.5221C48.7588 29.5222 51.1718 28.8911 53.2241 27.7087C55.2765 26.5262 56.8762 24.8456 57.8208 22.8792C58.7654 20.9129 59.0126 18.7492 58.531 16.6617C58.0495 14.5743 56.8609 12.6568 55.1155 11.1518C53.3701 9.64688 51.1463 8.62198 48.7254 8.20677C46.3045 7.79155 43.7951 8.00467 41.5146 8.81918C39.2342 9.63368 37.2851 11.013 35.9137 12.7827C34.5424 14.5523 33.8105 16.6329 33.8105 18.7613C33.8143 21.6142 35.1304 24.3494 37.47 26.3668C39.8096 28.3841 42.9818 29.5189 46.2905 29.5221ZM46.2905 12.3949C47.7508 12.3949 49.1783 12.7682 50.3925 13.4677C51.6067 14.1673 52.5531 15.1615 53.112 16.3248C53.6708 17.4881 53.8171 18.7682 53.5322 20.0032C53.2474 21.2381 52.5442 22.3725 51.5116 23.2629C50.479 24.1533 49.1634 24.7596 47.7312 25.0053C46.299 25.2509 44.8144 25.1249 43.4652 24.643C42.1161 24.1612 40.963 23.3452 40.1516 22.2982C39.3403 21.2513 38.9073 20.0204 38.9073 18.7613C38.9095 17.0734 39.688 15.4552 41.0722 14.2617C42.4563 13.0682 44.333 12.3968 46.2905 12.3949Z" fill="#2E2D2D"/>
<path d="M33.9269 64.3467L19.1719 92.9996H23.6026L36.2234 67.7733C36.3043 67.6117 36.4384 67.474 36.6091 67.3775C36.7799 67.2809 36.9797 67.2296 37.1839 67.23H42.7223C42.9272 67.23 43.1275 67.2819 43.2985 67.3793C43.4694 67.4767 43.6033 67.6153 43.6836 67.7778L56.1101 92.9996H60.5408L45.9763 64.3467H33.9269Z" fill="#2E2D2D"/>
<path d="M62.9244 31.5498H16.1049C13.3259 31.5498 11 33.442 11 35.8387V58.1925C11.0159 59.3512 11.5606 60.4578 12.5161 61.2726C13.4717 62.0873 14.7611 62.5446 16.1049 62.5454H63.5815C64.9249 62.5445 66.2138 62.087 67.1687 61.2722C68.1236 60.4574 68.6676 59.3508 68.6826 58.1925V36.4055C68.6826 33.6968 66.0658 31.5498 62.9244 31.5498ZM16.4339 51.618C16.4339 51.857 16.3238 52.0862 16.1278 52.2551C15.9318 52.4241 15.666 52.5191 15.3889 52.5191C15.1118 52.5191 14.846 52.4241 14.65 52.2551C14.454 52.0862 14.3439 51.857 14.3439 51.618V41.4158C14.3439 41.1768 14.454 40.9476 14.65 40.7787C14.846 40.6097 15.1118 40.5147 15.3889 40.5147C15.666 40.5147 15.9318 40.6097 16.1278 40.7787C16.3238 40.9476 16.4339 41.1768 16.4339 41.4158V51.618ZM16.4339 37.3817C16.4339 37.6206 16.3238 37.8498 16.1278 38.0188C15.9318 38.1878 15.666 38.2827 15.3889 38.2827C15.1118 38.2827 14.846 38.1878 14.65 38.0188C14.454 37.8498 14.3439 37.6206 14.3439 37.3817V36.37C14.3439 36.131 14.454 35.9018 14.65 35.7329C14.846 35.5639 15.1118 35.4689 15.3889 35.4689C15.666 35.4689 15.9318 35.5639 16.1278 35.7329C16.3238 35.9018 16.4339 36.131 16.4339 36.37V37.3817ZM43.8122 53.0582C43.8122 53.8538 43.4457 54.6168 42.7933 55.1794C42.1408 55.7419 41.256 56.058 40.3333 56.058H23.8837C22.961 56.058 22.0762 55.7419 21.4237 55.1794C20.7713 54.6168 20.4048 53.8538 20.4048 53.0582V41.037C20.4048 40.2414 20.7713 39.4784 21.4237 38.9159C22.0762 38.3533 22.961 38.0373 23.8837 38.0373H40.3333C41.256 38.0373 42.1408 38.3533 42.7933 38.9159C43.4457 39.4784 43.8122 40.2414 43.8122 41.037V53.0582ZM52.3104 43.2593C51.7256 43.2593 51.154 43.1098 50.6677 42.8296C50.1815 42.5495 49.8026 42.1514 49.5788 41.6855C49.355 41.2197 49.2964 40.7071 49.4105 40.2125C49.5246 39.718 49.8062 39.2638 50.2197 38.9072C50.6332 38.5507 51.16 38.3079 51.7336 38.2095C52.3071 38.1111 52.9016 38.1616 53.4418 38.3546C53.9821 38.5475 54.4439 38.8743 54.7687 39.2935C55.0936 39.7128 55.267 40.2057 55.267 40.7099C55.2662 41.3858 54.9544 42.0339 54.4001 42.5118C53.8458 42.9898 53.0943 43.2586 52.3104 43.2593ZM59.3986 43.2593C58.8139 43.2593 58.2422 43.1098 57.756 42.8296C57.2698 42.5495 56.8908 42.1514 56.6671 41.6855C56.4433 41.2197 56.3847 40.7071 56.4988 40.2125C56.6129 39.718 56.8945 39.2638 57.308 38.9072C57.7215 38.5507 58.2483 38.3079 58.8218 38.2095C59.3954 38.1111 59.9898 38.1616 60.5301 38.3546C61.0704 38.5475 61.5321 38.8743 61.857 39.2935C62.1819 39.7128 62.3553 40.2057 62.3553 40.7099C62.3545 41.3858 62.0427 42.0339 61.4884 42.5118C60.9341 42.9898 60.1825 43.2586 59.3986 43.2593Z" fill="#2E2D2D"/>
<path d="M87.7566 31.0088C86.626 31.0207 85.5466 31.4172 84.7534 32.1121C83.9602 32.8069 83.5175 33.7438 83.5215 34.7187V59.4473C83.5211 59.9263 83.6304 60.4007 83.8433 60.8432C84.0562 61.2856 84.3683 61.6875 84.7619 62.0256C85.1554 62.3637 85.6226 62.6314 86.1365 62.8133C86.6505 62.9952 87.2011 63.0878 87.7566 63.0857H90.0004V31.0088H87.7566Z" fill="#2E2D2D"/>
<path d="M70.7734 51.6876L81.4322 56.876V36.9609L70.7734 42.2945V51.6876Z" fill="#FFC90A"/>
<path d="M59.3977 41.4562C59.8763 41.4562 60.2642 41.1217 60.2642 40.7091C60.2642 40.2964 59.8763 39.9619 59.3977 39.9619C58.9192 39.9619 58.5312 40.2964 58.5312 40.7091C58.5312 41.1217 58.9192 41.4562 59.3977 41.4562Z" fill="#FFC90A"/>
<path d="M52.3099 41.4562C52.7884 41.4562 53.1763 41.1217 53.1763 40.7091C53.1763 40.2964 52.7884 39.9619 52.3099 39.9619C51.8313 39.9619 51.4434 40.2964 51.4434 40.7091C51.4434 41.1217 51.8313 41.4562 52.3099 41.4562Z" fill="#FFC90A"/>
</svg>
