<svg width="79" height="80" viewBox="0 0 79 80" fill="none" xmlns="http://www.w3.org/2000/svg">
<path d="M11 23.2C11 17.0144 16.0144 12 22.2 12H55.8C61.9856 12 67 17.0144 67 23.2V56.8C67 62.9856 61.9856 68 55.8 68H22.2C16.0144 68 11 62.9856 11 56.8V23.2Z" fill="#2E2D2D"/>
<path d="M34.8281 31.2109H38.2188L31.2188 51.1992H27.7734L20.8008 31.2109H24.1641L28.334 43.6387C28.5527 44.2311 28.7852 44.9967 29.0312 45.9355C29.2773 46.8652 29.4368 47.5579 29.5098 48.0137C29.6283 47.321 29.8105 46.5189 30.0566 45.6074C30.3027 44.696 30.5033 44.0215 30.6582 43.584L34.8281 31.2109Z" fill="#FFC90A"/>
<path d="M56.1152 51.1992H52.3281L46.0527 42.1484L44.125 43.7207V51.1992H40.8574V31.2109H44.125V40.7539C45.0182 39.6602 45.9069 38.6074 46.791 37.5957L52.1914 31.2109H55.9102C52.4193 35.3125 49.9173 38.2337 48.4043 39.9746L56.1152 51.1992Z" fill="#FFC90A"/>
</svg>
